<svg width="2000" height="1500" viewBox="0 0 2000 1500" fill="none" xmlns="http://www.w3.org/2000/svg">
<rect width="2000" height="1500" rx="50" fill="white"/>
<path d="M1419.41 978.61C1431.94 945.496 1379.38 954.042 1377.56 954.952L1374.83 978.61C1259.09 998.264 1155.54 986.799 1118.23 978.609V927.655L1021.78 978.609C957.726 982.977 921.66 960.999 906.226 952.222L915.325 922.195L786.118 973.15L744.263 944.943C722.122 951.009 669.651 965.689 636.894 975.88C604.137 986.071 614.146 990.438 623.245 991.348C883.478 997.717 1406.67 1012.28 1419.41 978.61Z" fill="#A0A0A0"/>
<path d="M1292.03 621.928C1295.06 634.06 1293.85 657.414 1264.73 653.774C1235.61 650.135 1248.35 599.18 1274.74 605.549" stroke="black" stroke-width="5" stroke-linecap="round"/>
<path d="M1168.28 542.766C1213.47 547.315 1315.5 552.411 1362.09 536.396" stroke="black" stroke-width="5" stroke-linecap="round"/>
<path d="M1382.11 517.288L1374.85 983.151C1374.84 984.186 1374.08 985.034 1373.05 985.109C1311.47 989.582 1178.17 994.204 1119.7 978.112C1118.81 977.869 1118.26 977.055 1118.29 976.137L1135.45 506.521C1135.49 505.428 1136.35 504.569 1137.45 504.592C1178.51 505.469 1280.25 505.732 1374.83 500" stroke="black" stroke-width="5" stroke-linecap="round"/>
<path d="M1171.92 953.132C1206.8 953.435 1284.2 952.586 1314.77 946.763" stroke="black" stroke-width="5" stroke-linecap="round"/>
<path d="M954.451 942.213C959.91 944.336 973.923 949.674 986.297 954.042" stroke="black" stroke-width="5" stroke-linecap="round"/>
<path d="M1058.18 570.062C1065.16 573.702 1080.93 579.889 1088.21 575.522" stroke="black" stroke-width="5" stroke-linecap="round"/>
<path d="M1046.91 522.045L1133.89 551.565C1135.89 552.243 1135.58 555.016 1133.48 555.169C1086.72 558.565 1052.57 535.304 1045.08 524.054C1044.23 522.769 1045.45 521.55 1046.91 522.045Z" fill="#A0A0A0"/>
<path d="M1127.33 592.81L1020.87 976.79C980.11 984.069 928.064 963.445 907.136 952.222C920.966 898.356 1004.8 637.699 1043.62 518.198L1130.97 548.225" stroke="black" stroke-width="5" stroke-linecap="round"/>
<path d="M984.477 656.503L937.92 619.608C937.016 618.892 935.695 619.087 935.036 620.033L731.524 912.186" stroke="black" stroke-width="5" stroke-linecap="round"/>
<path d="M723.335 926.745L787.938 973.15L988.117 666.513" stroke="black" stroke-width="5" stroke-linecap="round"/>
<path d="M586.849 949.493C592.186 958.388 605.871 975.979 618.723 976.763C619.285 976.797 619.822 976.553 620.201 976.136L884.749 685.404C885.535 684.54 885.423 683.195 884.512 682.464C877.596 676.917 864.889 665.664 856.703 654.823C855.944 653.819 854.462 653.71 853.592 654.62L578.66 942.214" stroke="black" stroke-width="5" stroke-linecap="round"/>
<circle cx="608.686" cy="944.943" r="3.63962" fill="black"/>
<circle cx="765.19" cy="937.664" r="3.63962" fill="black"/>
<circle cx="947.172" cy="659.233" r="3.63962" fill="black"/>
<circle cx="858" cy="679.251" r="3.63962" fill="black"/>
<path d="M855.271 654.684L919.875 638.306" stroke="black" stroke-width="5" stroke-linecap="round"/>
<path d="M937.163 620.107L1018.14 594.63" stroke="black" stroke-width="5" stroke-linecap="round"/>
</svg>
